<?xml version="1.0" standalone="no"?>
<!DOCTYPE svg PUBLIC "-//W3C//DTD SVG 20010904//EN"
 "http://www.w3.org/TR/2001/REC-SVG-20010904/DTD/svg10.dtd">
<svg version="1.0" xmlns="http://www.w3.org/2000/svg"
 width="900.000000pt" height="900.000000pt" viewBox="0 0 900.000000 900.000000"
 preserveAspectRatio="xMidYMid meet">
<metadata>
Created by potrace 1.10, written by Peter Selinger 2001-2011
</metadata>
<g transform="translate(0.000000,900.000000) scale(0.100000,-0.100000)"
fill="#000000" stroke="none">
<path d="M5415 8038 c-4 -18 -7 -37 -6 -42 3 -15 -31 -46 -51 -46 -12 0 -18 7
-18 24 0 45 -17 36 -40 -20 -13 -30 -30 -60 -37 -66 -10 -8 -13 -24 -9 -52 3
-23 3 -33 0 -23 -7 24 -21 21 -30 -5 -3 -12 -13 -28 -20 -36 -8 -7 -14 -22
-14 -31 0 -10 -7 -24 -15 -31 -8 -7 -15 -21 -15 -31 0 -10 -4 -20 -9 -23 -5
-4 -19 -27 -31 -54 -12 -26 -26 -54 -31 -62 -5 -8 -12 -22 -15 -30 -3 -8 -10
-22 -15 -30 -5 -8 -12 -22 -15 -30 -3 -8 -9 -22 -14 -30 -5 -8 -32 -62 -60
-120 -28 -58 -56 -112 -61 -120 -5 -8 -14 -26 -20 -39 -5 -14 -44 -93 -84
-177 -41 -83 -75 -155 -75 -160 0 -5 -9 -20 -20 -34 -36 -46 -29 -50 93 -49
61 0 136 6 165 12 63 14 47 -11 217 352 26 55 82 172 125 260 105 214 156 325
165 355 4 14 18 39 31 57 13 17 24 41 24 52 0 19 28 81 42 91 3 3 10 19 14 35
4 16 13 36 21 43 15 16 17 29 3 37 -5 3 -12 -6 -16 -20 -7 -30 -9 -30 -34 -5
-23 23 -42 27 -34 7 3 -8 -11 -20 -34 -30 -61 -27 -64 -25 -58 43 5 64 -7 81
-19 28z m117 -154 c-2 -13 -8 -21 -13 -18 -11 6 -12 48 -2 57 11 12 20 -12 15
-39z"/>
<path d="M3561 7663 c-37 -16 -54 -47 -58 -107 -5 -55 -2 -67 25 -116 17 -30
43 -77 57 -105 14 -27 30 -58 35 -67 6 -10 14 -26 20 -35 5 -10 28 -54 50 -98
23 -44 45 -87 49 -95 5 -8 16 -31 27 -50 10 -19 33 -62 51 -95 18 -33 45 -86
60 -117 17 -33 36 -59 48 -62 38 -11 315 -7 315 5 0 6 -11 25 -25 43 -14 18
-25 37 -25 42 0 10 -5 19 -65 129 -38 69 -64 117 -156 292 -87 165 -121 228
-135 244 -8 8 -14 20 -14 26 0 6 -7 16 -15 23 -8 7 -15 19 -15 27 0 7 -10 28
-22 46 -49 68 -54 71 -126 74 -37 1 -73 0 -81 -4z"/>
<path d="M1925 6535 c-16 -8 -42 -14 -57 -15 -15 0 -29 -4 -33 -9 -3 -5 -19
-12 -35 -16 -16 -4 -49 -17 -72 -31 -24 -13 -53 -28 -64 -33 -21 -9 -144 -118
-171 -151 -40 -48 -83 -106 -83 -112 0 -4 -13 -30 -30 -56 -16 -27 -30 -55
-30 -62 0 -6 -6 -26 -14 -43 -41 -95 -41 -87 -41 -1617 0 -1531 -1 -1494 41
-1620 26 -77 84 -185 129 -240 32 -40 128 -133 159 -155 37 -26 167 -95 179
-95 5 0 23 -6 40 -14 18 -7 73 -21 123 -30 82 -14 313 -16 2485 -16 2303 0
2397 1 2484 19 166 35 282 90 388 187 98 88 186 216 229 334 42 114 42 97 45
1605 4 1311 2 1457 -12 1525 -17 78 -69 224 -89 250 -7 8 -18 28 -26 44 -28
56 -162 186 -253 247 -50 32 -99 59 -108 59 -10 0 -33 6 -51 14 -18 7 -63 21
-100 30 -60 15 -294 16 -2535 15 -2070 0 -2473 -3 -2498 -14z m4130 -386 c108
-45 186 -128 231 -245 18 -47 19 -100 19 -1524 l0 -1475 -34 -69 c-36 -73
-116 -162 -172 -191 -19 -9 -60 -25 -93 -36 -57 -18 -115 -19 -2012 -19 -2119
0 -1950 -4 -2063 49 -60 28 -145 120 -181 196 l-33 70 0 1485 0 1485 34 69
c38 78 115 161 175 190 21 10 48 24 59 30 11 5 40 13 65 16 25 3 920 4 1990 2
l1945 -4 70 -29z m931 -194 c10 -8 27 -15 37 -15 9 0 17 -5 17 -10 0 -6 8 -14
17 -17 25 -10 74 -55 84 -78 5 -11 13 -27 18 -35 17 -30 41 -119 41 -153 0
-43 -32 -129 -68 -181 -55 -80 -191 -145 -277 -132 -91 13 -112 20 -157 50
-64 42 -103 95 -129 173 -26 80 -22 154 14 235 26 57 114 148 144 148 10 0 27
7 37 15 14 11 46 15 111 15 65 0 97 -4 111 -15z m-36 -855 c40 0 56 -6 99 -39
150 -112 184 -286 87 -440 -50 -79 -136 -128 -242 -138 -108 -10 -226 45 -282
130 -34 53 -60 131 -61 181 -2 82 48 190 114 249 47 41 143 69 209 61 16 -2
50 -4 76 -4z m51 -864 c245 -110 250 -452 9 -578 -39 -20 -58 -23 -146 -22
-91 1 -106 4 -148 29 -108 63 -176 194 -162 311 20 168 149 282 322 283 55 1
84 -5 125 -23z"/>
<path d="M4585 5486 c-118 -24 -205 -83 -269 -181 -52 -82 -66 -136 -66 -261
0 -100 3 -119 29 -182 45 -111 100 -173 196 -220 124 -61 310 -61 453 0 40 17
77 39 82 49 6 10 10 85 10 167 0 116 -3 152 -14 161 -9 8 -54 11 -132 9 l-119
-3 0 -40 0 -40 75 -5 75 -5 3 -98 c2 -86 1 -98 -15 -103 -10 -3 -35 -13 -56
-21 -26 -11 -70 -16 -140 -16 -91 -1 -108 2 -153 26 -66 33 -125 101 -152 173
-17 43 -22 78 -22 149 0 159 53 256 175 316 63 31 65 31 187 27 158 -5 172
-12 184 -86 8 -50 12 -58 37 -67 44 -15 53 6 49 113 l-3 91 -57 17 c-68 20
-213 44 -262 42 -19 0 -62 -6 -95 -12z"/>
<path d="M5680 5486 c-64 -16 -104 -40 -137 -83 -37 -48 -53 -93 -53 -153 0
-63 16 -108 54 -148 37 -39 69 -57 156 -84 162 -50 201 -80 203 -155 2 -73 -9
-100 -55 -133 -38 -28 -47 -30 -130 -30 -119 0 -145 13 -153 77 -9 68 -11 72
-40 79 -47 12 -56 -8 -53 -115 l3 -96 35 -16 c57 -26 204 -41 280 -27 145 25
230 125 230 267 -1 79 -25 129 -85 172 -39 29 -120 63 -182 79 -47 11 -118 55
-137 84 -9 14 -16 44 -16 67 0 35 6 48 39 80 l39 39 100 0 c117 0 126 -5 136
-78 7 -55 24 -75 58 -70 22 3 23 6 23 103 l0 100 -30 14 c-29 14 -181 42 -220
40 -11 -1 -40 -7 -65 -13z"/>
<path d="M3710 5482 c-26 -3 -33 -16 -74 -122 -10 -25 -24 -58 -31 -75 -7 -16
-19 -48 -28 -70 -8 -22 -29 -75 -46 -117 -17 -43 -45 -113 -62 -155 -17 -43
-44 -109 -60 -147 -16 -38 -29 -75 -29 -82 0 -8 -18 -25 -40 -39 -39 -25 -50
-47 -29 -61 15 -9 232 -5 242 5 15 15 -3 49 -28 55 -17 4 -25 13 -25 29 0 25
42 133 59 150 14 14 342 23 367 9 10 -6 27 -32 37 -59 10 -26 23 -56 28 -65
15 -29 10 -48 -16 -60 -26 -12 -41 -41 -30 -58 4 -6 56 -10 126 -10 l119 0 0
29 c0 23 -6 31 -28 39 -31 11 -51 47 -107 192 -9 25 -23 59 -30 75 -7 17 -20
50 -30 75 -10 25 -23 59 -30 75 -7 17 -21 50 -30 75 -10 25 -23 59 -30 75 -12
26 -59 144 -86 213 -5 12 -14 23 -21 23 -32 4 -65 4 -88 1z m58 -168 c3 -19
21 -70 47 -129 7 -16 20 -50 30 -75 9 -25 23 -60 31 -78 8 -18 14 -44 14 -57
l0 -25 -145 0 c-110 0 -145 3 -145 13 0 7 9 37 21 67 11 30 25 69 30 87 5 18
14 35 19 38 6 4 10 14 10 23 0 9 7 30 15 46 8 15 15 33 15 38 0 6 7 25 16 44
18 37 37 40 42 8z"/>
<path d="M5235 5480 c-126 -5 -130 -6 -133 -28 -3 -19 4 -26 37 -39 26 -10 43
-24 47 -37 2 -12 3 -167 2 -346 l-3 -325 -38 -20 c-43 -23 -57 -53 -34 -70 19
-14 265 -11 280 4 18 18 1 46 -40 65 l-42 19 -3 336 c-3 309 -2 337 15 354 9
9 26 17 37 17 18 0 40 26 40 49 0 21 -38 26 -165 21z"/>
<path d="M2134 5466 c-14 -36 9 -62 69 -80 16 -5 17 -30 17 -345 0 -295 -2
-342 -16 -355 -8 -9 -23 -16 -33 -16 -40 0 -56 -51 -21 -70 12 -6 69 -9 142
-8 l123 3 0 34 c0 31 -3 35 -40 45 l-40 12 -3 287 c-1 169 1 287 7 287 5 0 19
-19 31 -42 35 -68 129 -236 150 -268 5 -8 16 -28 24 -45 8 -16 33 -61 55 -100
37 -66 41 -70 79 -73 47 -4 35 -20 165 218 19 36 51 94 71 130 20 36 48 89 62
118 47 97 52 80 56 -215 2 -165 0 -275 -6 -285 -6 -9 -27 -20 -48 -23 -30 -5
-39 -12 -44 -32 -4 -13 -2 -29 3 -34 5 -5 70 -8 149 -7 l139 3 0 30 c0 25 -5
31 -35 39 -19 5 -38 15 -42 20 -4 6 -8 164 -8 351 l0 341 43 14 c37 13 42 19
42 45 l0 30 -104 0 -103 0 -23 -40 c-13 -22 -36 -62 -50 -90 -15 -27 -41 -77
-60 -110 -46 -82 -63 -114 -124 -230 -29 -55 -61 -109 -72 -119 -18 -19 -18
-19 -24 0 -4 10 -10 26 -15 35 -28 54 -64 118 -80 144 -11 17 -26 44 -34 60
-15 30 -37 69 -87 155 -14 25 -41 72 -59 105 -52 96 -50 95 -157 95 -72 0 -95
-3 -99 -14z"/>
<path d="M3430 4020 l-215 -5 0 -90 0 -90 37 -3 c36 -3 37 -2 45 40 l9 43 93
3 c60 2 98 -1 107 -9 11 -9 14 -71 14 -341 0 -304 -1 -329 -17 -334 -50 -15
-68 -30 -68 -59 l0 -30 135 -3 c74 -1 142 2 150 7 25 17 1 62 -40 76 l-35 12
0 339 0 339 98 3 c73 2 98 -1 101 -10 19 -70 21 -73 56 -73 l35 0 3 87 c2 78
1 88 -17 97 -20 11 -56 11 -491 1z"/>
<path d="M4133 4022 c-91 -2 -124 -6 -133 -17 -18 -22 -6 -42 37 -62 20 -10
43 -29 49 -43 18 -38 39 -87 74 -175 18 -44 39 -96 48 -115 21 -48 35 -82 72
-175 18 -44 38 -93 45 -110 7 -16 28 -65 46 -108 l32 -78 54 3 55 3 20 50 c11
28 25 64 33 80 7 17 20 50 30 75 9 25 23 59 30 75 14 34 62 153 107 265 16 41
36 89 43 105 7 17 22 53 33 80 19 47 39 65 85 79 20 6 23 46 5 64 -13 13 -213
17 -255 6 -44 -12 -34 -74 11 -74 48 0 51 -23 16 -108 -18 -42 -39 -95 -47
-117 -8 -22 -21 -53 -28 -70 -7 -16 -20 -49 -29 -72 -9 -24 -23 -62 -32 -85
-16 -42 -24 -62 -58 -140 -18 -43 -32 -48 -41 -15 -7 23 -29 82 -50 132 -8 17
-27 64 -43 105 -71 179 -95 237 -108 261 -7 15 -15 42 -16 60 -3 30 0 35 29
43 31 10 47 35 37 61 -8 19 -16 20 -151 17z"/>
<path d="M2667 2050 l-297 -5 -14 -26 c-7 -15 -24 -60 -36 -100 -13 -41 -26
-81 -30 -89 -25 -51 -40 -94 -40 -113 -1 -12 -7 -33 -15 -47 -8 -14 -14 -38
-15 -54 0 -16 -8 -38 -17 -48 -13 -14 -14 -21 -4 -31 9 -9 13 -7 17 11 4 12
10 19 15 16 16 -10 31 6 19 21 -13 15 -4 41 17 49 22 9 28 -1 13 -19 -11 -13
-9 -15 14 -15 14 0 26 4 26 9 0 5 8 11 18 15 9 3 29 14 43 23 133 89 181 121
227 152 28 20 88 59 131 86 85 54 221 144 234 155 5 4 5 9 0 11 -4 2 -142 2
-306 -1z"/>
<path d="M6092 2052 c-9 -6 22 -32 100 -83 62 -42 175 -117 251 -167 76 -51
142 -92 147 -92 5 0 24 -13 42 -28 18 -16 40 -32 48 -35 8 -4 29 -16 45 -27
17 -11 38 -23 48 -26 9 -4 17 -10 17 -15 0 -5 6 -9 14 -9 7 0 19 -7 26 -15 15
-19 47 -21 33 -2 -6 6 -20 41 -31 77 -11 36 -25 79 -31 95 -5 17 -18 57 -27
90 -10 33 -21 65 -25 70 -4 6 -10 26 -14 45 -4 19 -11 40 -15 45 -4 6 -11 25
-15 43 l-7 32 -276 0 c-152 0 -286 3 -297 5 -11 3 -26 1 -33 -3z m717 -433
c17 -16 20 -24 11 -33 -8 -8 -16 -5 -30 14 -34 43 -21 56 19 19z"/>
</g>
</svg>
